<svg width="28" height="30" viewBox="0 0 28 30" fill="none" xmlns="http://www.w3.org/2000/svg">
<path d="M13.7001 5.80498C13.7947 5.76369 13.8968 5.74237 14.0001 5.74237C14.1033 5.74237 14.2054 5.76369 14.3001 5.80498C17.9981 7.42139 21.5256 9.40287 24.8301 11.72C24.9465 11.8017 25.0373 11.9147 25.092 12.0461C25.1466 12.1774 25.1627 12.3216 25.1385 12.4617C25.1143 12.6019 25.0507 12.7323 24.9552 12.8377C24.8597 12.9431 24.7362 13.0191 24.5991 13.057C21.1684 14.0045 17.8489 15.3159 14.6971 16.969L14.6941 16.971C14.5801 17.031 14.4671 17.09 14.3541 17.151C14.2453 17.2091 14.1239 17.2395 14.0006 17.2395C13.8772 17.2395 13.7558 17.2091 13.6471 17.151C12.2952 16.4295 10.9115 15.7695 9.50006 15.173V14.949C9.50006 14.818 9.56706 14.701 9.67206 14.638C11.1814 13.7233 12.7343 12.8823 14.3251 12.118C14.5043 12.0318 14.642 11.8779 14.7079 11.6902C14.7737 11.5025 14.7623 11.2963 14.6761 11.117C14.5899 10.9377 14.436 10.8 14.2483 10.7342C14.0605 10.6683 13.8543 10.6798 13.6751 10.766C12.0408 11.5513 10.4456 12.4153 8.89506 13.355C8.67446 13.4888 8.48415 13.6671 8.33626 13.8785C8.18837 14.09 8.08613 14.3299 8.03606 14.583C6.51727 13.9986 4.97075 13.489 3.40206 13.056C3.26496 13.0181 3.14144 12.9421 3.04593 12.8367C2.95042 12.7313 2.88685 12.6009 2.86263 12.4607C2.83842 12.3206 2.85456 12.1764 2.90917 12.0451C2.96378 11.9137 3.05461 11.8007 3.17106 11.719C6.47525 9.4023 10.0024 7.42115 13.7001 5.80498Z" fill="black"/>
<path d="M15.06 18.473C17.5163 17.1607 20.0811 16.0627 22.726 15.191C22.86 16.605 22.946 18.034 22.981 19.475C22.9849 19.6261 22.943 19.7748 22.861 19.9016C22.7789 20.0285 22.6604 20.1276 22.521 20.186C19.6863 21.3699 16.9721 22.824 14.416 24.528C14.2928 24.6101 14.1481 24.6539 14 24.6539C13.852 24.6539 13.7072 24.6101 13.584 24.528C11.0282 22.824 8.3144 21.37 5.48001 20.186C5.34061 20.1278 5.22202 20.0289 5.13976 19.9023C5.05751 19.7756 5.01542 19.627 5.01901 19.476C5.05401 18.034 5.14001 16.606 5.27401 15.19C6.19501 15.494 7.10401 15.824 8.00001 16.18V17.45C7.78395 17.5745 7.60232 17.7509 7.47158 17.9632C7.34083 18.1756 7.26508 18.4171 7.25118 18.6661C7.23728 18.9151 7.28567 19.1636 7.39198 19.3892C7.49828 19.6147 7.65914 19.8102 7.86001 19.958C7.77001 20.338 7.63801 20.711 7.46301 21.068C7.91501 21.281 8.36401 21.502 8.80901 21.728C9.05985 21.2178 9.24499 20.6778 9.36001 20.121C9.6129 20.0086 9.82974 19.8284 9.98656 19.6003C10.1434 19.3723 10.234 19.1053 10.2485 18.8289C10.263 18.5525 10.2008 18.2775 10.0687 18.0344C9.93656 17.7912 9.73975 17.5893 9.50001 17.451V16.806C10.6681 17.3163 11.8157 17.8724 12.94 18.473C13.2662 18.6472 13.6302 18.7383 14 18.7383C14.3698 18.7383 14.7338 18.6472 15.06 18.473Z" fill="black"/>
<path d="M6.46201 22.462C6.88201 22.043 7.21501 21.572 7.46201 21.067C7.91501 21.281 8.36401 21.502 8.80901 21.729C8.48181 22.3936 8.04732 22.9997 7.52301 23.523C7.38084 23.6555 7.19279 23.7276 6.99849 23.7242C6.80419 23.7208 6.6188 23.6421 6.48139 23.5046C6.34398 23.3672 6.26526 23.1818 6.26184 22.9875C6.25841 22.7932 6.33053 22.6052 6.46301 22.463L6.46201 22.462Z" fill="black"/>
</svg>
