<svg width="18" height="18" viewBox="0 0 18 18" fill="none" xmlns="http://www.w3.org/2000/svg">
<path fill-rule="evenodd" clip-rule="evenodd" d="M5.62646 4.5H10.9725C11.6431 4.50099 12.286 4.76812 12.7599 5.24271C13.2338 5.7173 13.5 6.36057 13.5 7.03125V14.0625C14.0967 14.0625 14.669 13.8254 15.091 13.4035C15.5129 12.9815 15.75 12.4092 15.75 11.8125V4.581C15.75 3.45225 14.9062 2.47275 13.752 2.376C13.5838 2.36234 13.4155 2.34984 13.2472 2.3385C13.0574 1.97272 12.7707 1.6661 12.4185 1.45211C12.0663 1.23811 11.6621 1.12496 11.25 1.125H10.125C9.71285 1.12496 9.30864 1.23811 8.95643 1.45211C8.60423 1.6661 8.31756 1.97272 8.12771 2.3385C7.95896 2.34975 7.79021 2.3625 7.62296 2.376C6.49646 2.47125 5.66546 3.4065 5.62646 4.5ZM10.125 2.25C9.8266 2.25 9.54045 2.36853 9.32947 2.5795C9.11849 2.79048 8.99996 3.07663 8.99996 3.375H12.375C12.375 3.07663 12.2564 2.79048 12.0455 2.5795C11.8345 2.36853 11.5483 2.25 11.25 2.25H10.125Z" fill="#BFBFBF"/>
<path fill-rule="evenodd" clip-rule="evenodd" d="M2.25 7.03125C2.25 6.25425 2.88 5.625 3.65625 5.625H10.9688C11.7458 5.625 12.375 6.255 12.375 7.03125V15.4688C12.375 16.245 11.745 16.875 10.9688 16.875H3.65625C3.28329 16.875 2.9256 16.7268 2.66188 16.4631C2.39816 16.1994 2.25 15.8417 2.25 15.4688V7.03125ZM9.4395 10.4767C9.53279 10.3602 9.57595 10.2113 9.5595 10.063C9.54304 9.91456 9.46831 9.77879 9.35175 9.6855C9.23519 9.59221 9.08634 9.54905 8.93795 9.5655C8.78956 9.58196 8.65379 9.65669 8.5605 9.77325L6.7035 12.0953L6.0225 11.415C5.91587 11.3156 5.77483 11.2615 5.62911 11.2641C5.48338 11.2667 5.34434 11.3257 5.24128 11.4288C5.13822 11.5318 5.07919 11.6709 5.07662 11.8166C5.07405 11.9623 5.12814 12.1034 5.2275 12.21L6.3525 13.335C6.40845 13.3909 6.47557 13.4344 6.54947 13.4627C6.62337 13.4909 6.7024 13.5032 6.78139 13.4988C6.86038 13.4944 6.93756 13.4734 7.00788 13.4372C7.0782 13.401 7.14009 13.3503 7.1895 13.2885L9.4395 10.4767Z" fill="#BFBFBF"/>
</svg>
