<svg width="18" height="18" viewBox="0 0 18 18" fill="none" xmlns="http://www.w3.org/2000/svg">
<path fill-rule="evenodd" clip-rule="evenodd" d="M9 1.6875C4.96125 1.6875 1.6875 4.96125 1.6875 9C1.6875 13.0388 4.96125 16.3125 9 16.3125C13.0388 16.3125 16.3125 13.0388 16.3125 9C16.3125 4.96125 13.0388 1.6875 9 1.6875ZM9.5625 4.5C9.5625 4.35082 9.50324 4.20774 9.39775 4.10225C9.29226 3.99676 9.14918 3.9375 9 3.9375C8.85082 3.9375 8.70774 3.99676 8.60225 4.10225C8.49676 4.20774 8.4375 4.35082 8.4375 4.5V9C8.4375 9.3105 8.6895 9.5625 9 9.5625H12.375C12.5242 9.5625 12.6673 9.50324 12.7727 9.39775C12.8782 9.29226 12.9375 9.14918 12.9375 9C12.9375 8.85082 12.8782 8.70774 12.7727 8.60225C12.6673 8.49676 12.5242 8.4375 12.375 8.4375H9.5625V4.5Z" fill="#111111"/>
</svg>
