<svg width="18" height="18" viewBox="0 0 18 18" fill="none" xmlns="http://www.w3.org/2000/svg">
<path d="M2.98494 6.16725C2.28328 6.99538 1.7608 7.9599 1.45044 9C2.41944 12.2535 5.43294 14.625 8.99994 14.625C9.74469 14.625 10.4647 14.5215 11.1472 14.3287M4.67094 4.671C5.95542 3.8234 7.461 3.37266 8.99994 3.375C12.5669 3.375 15.5797 5.7465 16.5487 8.9985C16.0177 10.7755 14.8777 12.3087 13.3289 13.329M4.67094 4.671L2.24994 2.25M4.67094 4.671L7.40844 7.4085M13.3289 13.329L15.7499 15.75M13.3289 13.329L10.5914 10.5915C10.8004 10.3826 10.9661 10.1345 11.0792 9.86149C11.1923 9.58848 11.2505 9.29587 11.2505 9.00037C11.2505 8.70488 11.1923 8.41227 11.0792 8.13926C10.9661 7.86626 10.8004 7.6182 10.5914 7.40925C10.3825 7.2003 10.1344 7.03455 9.86142 6.92147C9.58842 6.80839 9.29581 6.75018 9.00031 6.75018C8.70482 6.75018 8.41221 6.80839 8.1392 6.92147C7.8662 7.03455 7.61814 7.2003 7.40919 7.40925M10.5907 10.5908L7.40994 7.41" stroke="#636363" stroke-width="1.5" stroke-linecap="round" stroke-linejoin="round"/>
</svg>
