<svg width="18" height="18" viewBox="0 0 18 18" fill="none" xmlns="http://www.w3.org/2000/svg">
<path d="M16.2982 1.70176C15.929 1.33262 15.4283 1.12524 14.9062 1.12524C14.3841 1.12524 13.8834 1.33262 13.5142 1.70176L12.6464 2.56951L15.4304 5.35351L16.2982 4.48576C16.6673 4.11656 16.8747 3.61585 16.8747 3.09376C16.8747 2.57167 16.6673 2.07096 16.2982 1.70176ZM14.6347 6.14926L11.8507 3.36526L2.7382 12.4778C2.27534 12.9404 1.93508 13.5111 1.7482 14.1383L1.1482 16.152C1.11923 16.2492 1.11707 16.3524 1.14194 16.4507C1.16682 16.549 1.21781 16.6387 1.28951 16.7104C1.36121 16.7822 1.45096 16.8331 1.54927 16.858C1.64757 16.8829 1.75077 16.8807 1.84795 16.8518L3.8617 16.2518C4.48887 16.0649 5.05957 15.7246 5.5222 15.2618L14.6347 6.14926Z" fill="#4195F6"/>
</svg>
