<svg width="28" height="30" viewBox="0 0 28 30" fill="none" xmlns="http://www.w3.org/2000/svg">
<path fill-rule="evenodd" clip-rule="evenodd" d="M9.50195 9H16.63C17.5242 9.00132 18.3814 9.35749 19.0132 9.99028C19.6451 10.6231 20 11.4808 20 12.375V21.75C20.7956 21.75 21.5587 21.4339 22.1213 20.8713C22.6839 20.3087 23 19.5456 23 18.75V9.108C23 7.603 21.875 6.297 20.336 6.168C20.1117 6.14979 19.8874 6.13312 19.663 6.118C19.4098 5.63029 19.0276 5.22147 18.558 4.93614C18.0884 4.65082 17.5494 4.49995 17 4.5H15.5C14.9505 4.49995 14.4115 4.65082 13.9419 4.93614C13.4723 5.22147 13.0901 5.63029 12.837 6.118C12.612 6.133 12.387 6.15 12.164 6.168C10.662 6.295 9.55395 7.542 9.50195 9ZM15.5 6C15.1021 6 14.7206 6.15804 14.4393 6.43934C14.158 6.72064 14 7.10218 14 7.5H18.5C18.5 7.10218 18.3419 6.72064 18.0606 6.43934C17.7793 6.15804 17.3978 6 17 6H15.5Z" fill="black"/>
<path fill-rule="evenodd" clip-rule="evenodd" d="M5 12.375C5 11.339 5.84 10.5 6.875 10.5H16.625C17.661 10.5 18.5 11.34 18.5 12.375V23.625C18.5 24.66 17.66 25.5 16.625 25.5H6.875C6.37772 25.5 5.90081 25.3025 5.54917 24.9508C5.19754 24.5992 5 24.1223 5 23.625V12.375ZM8 15C8 14.8011 8.07902 14.6103 8.21967 14.4697C8.36032 14.329 8.55109 14.25 8.75 14.25H8.758C8.95691 14.25 9.14768 14.329 9.28833 14.4697C9.42898 14.6103 9.508 14.8011 9.508 15V15.008C9.508 15.2069 9.42898 15.3977 9.28833 15.5383C9.14768 15.679 8.95691 15.758 8.758 15.758H8.75C8.55109 15.758 8.36032 15.679 8.21967 15.5383C8.07902 15.3977 8 15.2069 8 15.008V15ZM10.25 15C10.25 14.8011 10.329 14.6103 10.4697 14.4697C10.6103 14.329 10.8011 14.25 11 14.25H14.75C14.9489 14.25 15.1397 14.329 15.2803 14.4697C15.421 14.6103 15.5 14.8011 15.5 15C15.5 15.1989 15.421 15.3897 15.2803 15.5303C15.1397 15.671 14.9489 15.75 14.75 15.75H11C10.8011 15.75 10.6103 15.671 10.4697 15.5303C10.329 15.3897 10.25 15.1989 10.25 15ZM8 18C8 17.8011 8.07902 17.6103 8.21967 17.4697C8.36032 17.329 8.55109 17.25 8.75 17.25H8.758C8.95691 17.25 9.14768 17.329 9.28833 17.4697C9.42898 17.6103 9.508 17.8011 9.508 18V18.008C9.508 18.2069 9.42898 18.3977 9.28833 18.5383C9.14768 18.679 8.95691 18.758 8.758 18.758H8.75C8.55109 18.758 8.36032 18.679 8.21967 18.5383C8.07902 18.3977 8 18.2069 8 18.008V18ZM10.25 18C10.25 17.8011 10.329 17.6103 10.4697 17.4697C10.6103 17.329 10.8011 17.25 11 17.25H14.75C14.9489 17.25 15.1397 17.329 15.2803 17.4697C15.421 17.6103 15.5 17.8011 15.5 18C15.5 18.1989 15.421 18.3897 15.2803 18.5303C15.1397 18.671 14.9489 18.75 14.75 18.75H11C10.8011 18.75 10.6103 18.671 10.4697 18.5303C10.329 18.3897 10.25 18.1989 10.25 18ZM8 21C8 20.8011 8.07902 20.6103 8.21967 20.4697C8.36032 20.329 8.55109 20.25 8.75 20.25H8.758C8.95691 20.25 9.14768 20.329 9.28833 20.4697C9.42898 20.6103 9.508 20.8011 9.508 21V21.008C9.508 21.2069 9.42898 21.3977 9.28833 21.5383C9.14768 21.679 8.95691 21.758 8.758 21.758H8.75C8.55109 21.758 8.36032 21.679 8.21967 21.5383C8.07902 21.3977 8 21.2069 8 21.008V21ZM10.25 21C10.25 20.8011 10.329 20.6103 10.4697 20.4697C10.6103 20.329 10.8011 20.25 11 20.25H14.75C14.9489 20.25 15.1397 20.329 15.2803 20.4697C15.421 20.6103 15.5 20.8011 15.5 21C15.5 21.1989 15.421 21.3897 15.2803 21.5303C15.1397 21.671 14.9489 21.75 14.75 21.75H11C10.8011 21.75 10.6103 21.671 10.4697 21.5303C10.329 21.3897 10.25 21.1989 10.25 21Z" fill="black"/>
</svg>
