<svg width="28" height="30" viewBox="0 0 28 30" fill="none" xmlns="http://www.w3.org/2000/svg">
<path d="M13.4699 6.84099C13.6106 6.70054 13.8012 6.62165 13.9999 6.62165C14.1987 6.62165 14.3893 6.70054 14.5299 6.84099L23.2199 15.531C23.2892 15.6026 23.3719 15.6597 23.4635 15.699C23.555 15.7382 23.6534 15.7589 23.753 15.7597C23.8526 15.7605 23.9513 15.7415 24.0435 15.7037C24.1356 15.666 24.2194 15.6102 24.2897 15.5398C24.3601 15.4693 24.4158 15.3856 24.4534 15.2934C24.4911 15.2012 24.51 15.1024 24.5091 15.0028C24.5082 14.9032 24.4875 14.8048 24.4481 14.7134C24.4088 14.6219 24.3516 14.5391 24.2799 14.47L15.5909 5.77999C15.382 5.57106 15.134 5.40532 14.861 5.29225C14.588 5.17917 14.2954 5.12097 13.9999 5.12097C13.7045 5.12097 13.4119 5.17917 13.1389 5.29225C12.8659 5.40532 12.6179 5.57106 12.4089 5.77999L3.71894 14.47C3.64734 14.5392 3.59025 14.622 3.55098 14.7135C3.51172 14.805 3.49108 14.9035 3.49026 15.003C3.48944 15.1026 3.50846 15.2014 3.54622 15.2935C3.58397 15.3857 3.6397 15.4694 3.71015 15.5398C3.78061 15.6102 3.86437 15.6658 3.95656 15.7035C4.04875 15.7412 4.14752 15.7601 4.2471 15.7592C4.34669 15.7583 4.44509 15.7375 4.53658 15.6982C4.62806 15.6588 4.71079 15.6017 4.77994 15.53L13.4699 6.84099Z" fill="black"/>
<path d="M14 8.43201L22.159 16.591C22.189 16.621 22.219 16.649 22.25 16.677V22.875C22.25 23.91 21.41 24.75 20.375 24.75H17C16.8011 24.75 16.6103 24.671 16.4697 24.5303C16.329 24.3897 16.25 24.1989 16.25 24V19.5C16.25 19.3011 16.171 19.1103 16.0303 18.9697C15.8897 18.829 15.6989 18.75 15.5 18.75H12.5C12.3011 18.75 12.1103 18.829 11.9697 18.9697C11.829 19.1103 11.75 19.3011 11.75 19.5V24C11.75 24.1989 11.671 24.3897 11.5303 24.5303C11.3897 24.671 11.1989 24.75 11 24.75H7.625C7.12772 24.75 6.65081 24.5525 6.29917 24.2008C5.94754 23.8492 5.75 23.3723 5.75 22.875V16.677C5.78111 16.6492 5.81146 16.6205 5.841 16.591L14 8.43201Z" fill="black"/>
</svg>
