<svg width="18" height="18" viewBox="0 0 18 18" fill="none" xmlns="http://www.w3.org/2000/svg">
<path d="M1.52698 9.2415C1.47522 9.08594 1.47522 8.91781 1.52698 8.76225C2.56723 5.6325 5.51998 3.375 8.99998 3.375C12.4785 3.375 15.4297 5.63025 16.4722 8.7585C16.5247 8.91375 16.5247 9.08175 16.4722 9.23775C15.4327 12.3675 12.48 14.625 8.99998 14.625C5.52148 14.625 2.56948 12.3697 1.52698 9.2415Z" stroke="#636363" stroke-width="1.5" stroke-linecap="round" stroke-linejoin="round"/>
<path d="M11.25 9C11.25 9.59674 11.0129 10.169 10.591 10.591C10.169 11.0129 9.59674 11.25 9 11.25C8.40326 11.25 7.83097 11.0129 7.40901 10.591C6.98705 10.169 6.75 9.59674 6.75 9C6.75 8.40326 6.98705 7.83097 7.40901 7.40901C7.83097 6.98705 8.40326 6.75 9 6.75C9.59674 6.75 10.169 6.98705 10.591 7.40901C11.0129 7.83097 11.25 8.40326 11.25 9Z" stroke="#636363" stroke-width="1.5" stroke-linecap="round" stroke-linejoin="round"/>
</svg>
