<svg width="28" height="30" viewBox="0 0 28 30" fill="none" xmlns="http://www.w3.org/2000/svg">
<path fill-rule="evenodd" clip-rule="evenodd" d="M10.25 9.75C10.25 8.75544 10.6451 7.80161 11.3483 7.09835C12.0516 6.39509 13.0054 6 14 6C14.9946 6 15.9484 6.39509 16.6517 7.09835C17.3549 7.80161 17.75 8.75544 17.75 9.75C17.75 10.7446 17.3549 11.6984 16.6517 12.4017C15.9484 13.1049 14.9946 13.5 14 13.5C13.0054 13.5 12.0516 13.1049 11.3483 12.4017C10.6451 11.6984 10.25 10.7446 10.25 9.75ZM17.75 12.75C17.75 11.9544 18.0661 11.1913 18.6287 10.6287C19.1913 10.0661 19.9544 9.75 20.75 9.75C21.5456 9.75 22.3087 10.0661 22.8713 10.6287C23.4339 11.1913 23.75 11.9544 23.75 12.75C23.75 13.5456 23.4339 14.3087 22.8713 14.8713C22.3087 15.4339 21.5456 15.75 20.75 15.75C19.9544 15.75 19.1913 15.4339 18.6287 14.8713C18.0661 14.3087 17.75 13.5456 17.75 12.75ZM4.25 12.75C4.25 11.9544 4.56607 11.1913 5.12868 10.6287C5.69129 10.0661 6.45435 9.75 7.25 9.75C8.04565 9.75 8.80871 10.0661 9.37132 10.6287C9.93393 11.1913 10.25 11.9544 10.25 12.75C10.25 13.5456 9.93393 14.3087 9.37132 14.8713C8.80871 15.4339 8.04565 15.75 7.25 15.75C6.45435 15.75 5.69129 15.4339 5.12868 14.8713C4.56607 14.3087 4.25 13.5456 4.25 12.75ZM8.31 18.117C8.91995 17.161 9.76108 16.3743 10.7556 15.8294C11.7502 15.2846 12.866 14.9994 14 15C14.9498 14.9991 15.8891 15.1989 16.7564 15.5862C17.6237 15.9734 18.3994 16.5395 19.0327 17.2474C19.6661 17.9552 20.1428 18.7888 20.4317 19.6936C20.7205 20.5985 20.815 21.5541 20.709 22.498C20.696 22.6153 20.6556 22.7278 20.591 22.8265C20.5263 22.9252 20.4393 23.0073 20.337 23.066C18.4086 24.1725 16.2233 24.7532 14 24.75C11.695 24.75 9.53 24.138 7.663 23.066C7.56069 23.0073 7.47368 22.9252 7.40904 22.8265C7.34441 22.7278 7.30396 22.6153 7.291 22.498C7.12305 20.9646 7.48246 19.4198 8.31 18.118V18.117Z" fill="black"/>
<path d="M7.08196 17.254C6.09571 18.7764 5.63621 20.5803 5.77396 22.389C5.17347 22.298 4.58286 22.1507 4.00996 21.949L3.89496 21.909C3.79235 21.8726 3.70251 21.8072 3.63631 21.7208C3.5701 21.6344 3.53039 21.5306 3.52196 21.422L3.51196 21.301C3.47156 20.799 3.53271 20.294 3.69176 19.8161C3.85081 19.3382 4.1045 18.8972 4.43768 18.5195C4.77087 18.1418 5.17673 17.8351 5.63104 17.6177C6.08535 17.4003 6.5788 17.2766 7.08196 17.254ZM22.226 22.389C22.3637 20.5803 21.9042 18.7764 20.918 17.254C21.4211 17.2766 21.9146 17.4003 22.3689 17.6177C22.8232 17.8351 23.229 18.1418 23.5622 18.5195C23.8954 18.8972 24.1491 19.3382 24.3082 19.8161C24.4672 20.294 24.5284 20.799 24.488 21.301L24.478 21.422C24.4693 21.5304 24.4295 21.634 24.3633 21.7202C24.2972 21.8064 24.2074 21.8717 24.105 21.908L23.99 21.948C23.423 22.148 22.834 22.297 22.226 22.389Z" fill="black"/>
</svg>
